<svg xmlns="http://www.w3.org/2000/svg" width="926" height="102" viewBox="0 0 926 102" fill="none">
  <g opacity="0.03">
    <path d="M53.7228 102C45.9534 102 38.7998 100.725 32.2621 98.175C25.7244 95.625 20.0395 92.0833 15.2072 87.55C10.375 82.9222 6.63244 77.5389 3.97947 71.4C1.32649 65.1667 0 58.3667 0 51C0 43.6333 1.32649 36.8806 3.97947 30.7417C6.63244 24.5083 10.375 19.125 15.2072 14.5917C20.0395 9.96389 25.7244 6.375 32.2621 3.825C38.7998 1.275 45.906 0 53.5807 0C61.3501 0 68.4563 1.275 74.8992 3.825C81.4369 6.375 87.1219 9.96389 91.9541 14.5917C96.7863 19.125 100.529 24.5083 103.182 30.7417C105.835 36.8806 107.161 43.6333 107.161 51C107.161 58.3667 105.835 65.1667 103.182 71.4C100.529 77.6333 96.7863 83.0167 91.9541 87.55C87.1219 92.0833 81.4369 95.625 74.8992 98.175C68.4563 100.725 61.3975 102 53.7228 102ZM53.5807 85.85C58.6024 85.85 63.2451 85 67.5088 83.3C71.7725 81.6 75.4677 79.1917 78.5945 76.075C81.7212 72.8639 84.1373 69.1806 85.8428 65.025C87.643 60.775 88.5431 56.1 88.5431 51C88.5431 45.9 87.643 41.2722 85.8428 37.1167C84.1373 32.8667 81.7212 29.1833 78.5945 26.0667C75.4677 22.8556 71.7725 20.4 67.5088 18.7C63.2451 17 58.6024 16.15 53.5807 16.15C48.559 16.15 43.9163 17 39.6525 18.7C35.4836 20.4 31.7884 22.8556 28.5669 26.0667C25.4402 29.1833 22.9767 32.8667 21.1764 37.1167C19.471 41.2722 18.6182 45.9 18.6182 51C18.6182 56.0056 19.471 60.6333 21.1764 64.8833C22.9767 69.1333 25.4402 72.8639 28.5669 76.075C31.6936 79.1917 35.3888 81.6 39.6525 83.3C43.9163 85 48.559 85.85 53.5807 85.85Z" fill="#19242F"/>
    <path d="M224.995 100.583L197.565 64.3167L212.062 55.3917L245.888 100.583H224.995ZM170.562 100.583V24.9333H188.327V100.583H170.562ZM183.069 70.2667V55.5333H208.793V70.2667H183.069ZM213.768 64.8833L197.139 62.9L224.995 24.9333H244.04L213.768 64.8833Z" fill="#19242F"/>
    <path d="M292.587 101.575C284.818 101.575 277.901 99.9222 271.837 96.6167C265.773 93.2167 260.989 88.5889 257.483 82.7333C253.977 76.8778 252.224 70.2194 252.224 62.7583C252.224 55.2028 253.977 48.5444 257.483 42.7833C260.989 36.9278 265.773 32.3472 271.837 29.0417C277.901 25.7361 284.818 24.0833 292.587 24.0833C300.452 24.0833 307.416 25.7361 313.48 29.0417C319.638 32.3472 324.423 36.8806 327.834 42.6417C331.34 48.4028 333.093 55.1083 333.093 62.7583C333.093 70.2194 331.34 76.8778 327.834 82.7333C324.423 88.5889 319.638 93.2167 313.48 96.6167C307.416 99.9222 300.452 101.575 292.587 101.575ZM292.587 86.4167C296.946 86.4167 300.831 85.4722 304.242 83.5833C307.653 81.6944 310.305 78.9556 312.2 75.3667C314.19 71.7778 315.185 67.575 315.185 62.7583C315.185 57.8472 314.19 53.6444 312.2 50.15C310.305 46.5611 307.653 43.8222 304.242 41.9333C300.831 40.0444 296.993 39.1 292.73 39.1C288.371 39.1 284.486 40.0444 281.075 41.9333C277.759 43.8222 275.106 46.5611 273.116 50.15C271.127 53.6444 270.132 57.8472 270.132 62.7583C270.132 67.575 271.127 71.7778 273.116 75.3667C275.106 78.9556 277.759 81.6944 281.075 83.5833C284.486 85.4722 288.324 86.4167 292.587 86.4167Z" fill="#19242F"/>
    <path d="M353.485 100.583V24.9333H372.103L402.66 78.625H395.27L427.39 24.9333H444.018L444.16 100.583H428.1V43.9167L430.943 45.7583L402.518 92.65H394.843L366.276 44.4833L369.687 43.6333V100.583H353.485Z" fill="#19242F"/>
    <path d="M470.832 100.583V24.9333H543.599V100.583H525.976V35.8417L530.097 39.95H484.476L488.597 35.8417V100.583H470.832Z" fill="#19242F"/>
    <path d="M616.461 100.583V85.2833L615.466 82.025V55.25C615.466 50.0556 613.903 46.0417 610.776 43.2083C607.649 40.2806 602.912 38.8167 596.564 38.8167C592.3 38.8167 588.083 39.4778 583.915 40.8C579.84 42.1222 576.382 43.9639 573.539 46.325L566.575 33.4333C570.65 30.3167 575.482 28.0028 581.072 26.4917C586.757 24.8861 592.631 24.0833 598.695 24.0833C609.686 24.0833 618.166 26.7278 624.136 32.0167C630.2 37.2111 633.232 45.2861 633.232 56.2417V100.583H616.461ZM592.584 101.575C586.899 101.575 581.925 100.631 577.661 98.7417C573.397 96.7583 570.081 94.0667 567.712 90.6667C565.438 87.1722 564.301 83.2528 564.301 78.9083C564.301 74.6583 565.296 70.8333 567.286 67.4333C569.371 64.0333 572.734 61.3417 577.377 59.3583C582.02 57.375 588.178 56.3833 595.853 56.3833H617.882V68.1417H597.132C591.068 68.1417 586.994 69.1333 584.909 71.1167C582.825 73.0056 581.783 75.3667 581.783 78.2C581.783 81.4111 583.062 83.9611 585.62 85.85C588.178 87.7389 591.731 88.6833 596.279 88.6833C600.638 88.6833 604.523 87.6917 607.933 85.7083C611.439 83.725 613.95 80.7972 615.466 76.925L618.451 87.55C616.745 91.9889 613.666 95.4361 609.213 97.8917C604.854 100.347 599.311 101.575 592.584 101.575Z" fill="#19242F"/>
    <path d="M658.058 100.583V24.9333H675.823V55.675H714.054V24.9333H731.82V100.583H714.054V70.6917H675.823V100.583H658.058Z" fill="#19242F"/>
    <path d="M758.471 100.583V24.9333H776.237V74.8L818.163 24.9333H834.366V100.583H816.6V50.7167L774.816 100.583H758.471Z" fill="#19242F"/>
    <path d="M861.106 100.583V24.9333H878.871V74.8L920.798 24.9333H937V100.583H919.235V50.7167L877.45 100.583H861.106Z" fill="#19242F"/>
  </g>
</svg>